<svg width="32" height="32" viewBox="0 0 32 32" fill="none" xmlns="http://www.w3.org/2000/svg">
<circle cx="16" cy="16" r="16" fill="#767676"/>
<path fill-rule="evenodd" clip-rule="evenodd" d="M24.1989 10.2992C24.4828 10.5918 24.6844 10.9542 24.7834 11.3497C25.0477 12.8153 25.176 14.3021 25.1667 15.7913C25.172 17.2583 25.0437 18.7227 24.7834 20.1663C24.6844 20.5618 24.4828 20.9242 24.1989 21.2168C23.915 21.5095 23.559 21.722 23.1667 21.833C21.7334 22.2163 16 22.2163 16 22.2163C16 22.2163 10.2667 22.2163 8.83336 21.833C8.44905 21.7279 8.09835 21.5254 7.81515 21.2451C7.53195 20.9648 7.32583 20.6162 7.2167 20.233C6.95234 18.7674 6.82401 17.2805 6.83336 15.7913C6.82606 14.3133 6.95437 12.8376 7.2167 11.383C7.31569 10.9875 7.51729 10.6252 7.80115 10.3325C8.08501 10.0399 8.44107 9.82733 8.83336 9.71634C10.2667 9.33301 16 9.33301 16 9.33301C16 9.33301 21.7334 9.33301 23.1667 9.68301C23.559 9.794 23.915 10.0065 24.1989 10.2992ZM18.9167 15.7914L14.125 18.5164V13.0664L18.9167 15.7914Z" fill="#F2F2F2"/>
</svg>
