<svg width="32" height="32" viewBox="0 0 32 32" fill="none" xmlns="http://www.w3.org/2000/svg">
<circle cx="16" cy="16" r="15.5" fill="#767676" stroke="#767676"/>
<g clip-path="url(#clip0_110560_2207)">
<path d="M20.1666 7.66699H11.8333C9.53211 7.66699 7.66663 9.53247 7.66663 11.8337V20.167C7.66663 22.4682 9.53211 24.3337 11.8333 24.3337H20.1666C22.4678 24.3337 24.3333 22.4682 24.3333 20.167V11.8337C24.3333 9.53247 22.4678 7.66699 20.1666 7.66699Z" stroke="#F2F2F2" stroke-width="1.5" stroke-linecap="round" stroke-linejoin="round"/>
<path d="M19.3334 15.4753C19.4362 16.1688 19.3178 16.8771 18.9948 17.4994C18.6719 18.1218 18.161 18.6264 17.5347 18.9416C16.9085 19.2569 16.1987 19.3666 15.5065 19.2552C14.8143 19.1438 14.1748 18.817 13.6791 18.3212C13.1833 17.8254 12.8565 17.186 12.7451 16.4938C12.6337 15.8015 12.7434 15.0918 13.0586 14.4656C13.3739 13.8393 13.8785 13.3284 14.5009 13.0055C15.1232 12.6825 15.8315 12.5641 16.525 12.6669C17.2325 12.7718 17.8874 13.1015 18.3931 13.6072C18.8988 14.1129 19.2285 14.7678 19.3334 15.4753Z" stroke="#F2F2F2" stroke-width="1.5" stroke-linecap="round" stroke-linejoin="round"/>
<path d="M20.5834 11.417H20.5917" stroke="#F2F2F2" stroke-width="1.5" stroke-linecap="round" stroke-linejoin="round"/>
</g>
<defs>
<clipPath id="clip0_110560_2207">
<rect width="20" height="20" fill="white" transform="translate(6 6)"/>
</clipPath>
</defs>
</svg>
