<svg width="124" height="32" viewBox="0 0 124 32" fill="none" xmlns="http://www.w3.org/2000/svg">
<circle cx="62" cy="16" r="16" fill="#767676"/>
<rect width="20" height="20" transform="translate(51 6)" fill="#767676"/>
<path d="M66 7.66699H63.5C62.395 7.66699 61.3352 8.10598 60.5538 8.88738C59.7724 9.66878 59.3334 10.7286 59.3334 11.8337V14.3337H56.8334V17.667H59.3334V24.3337H62.6667V17.667H65.1667L66 14.3337H62.6667V11.8337C62.6667 11.6126 62.7545 11.4007 62.9108 11.2444C63.0671 11.0881 63.279 11.0003 63.5 11.0003H66V7.66699Z" fill="#F2F2F2"/>
<circle cx="108" cy="16" r="16" fill="#767676"/>
<path fill-rule="evenodd" clip-rule="evenodd" d="M116.199 10.2992C116.483 10.5918 116.684 10.9542 116.783 11.3497C117.048 12.8153 117.176 14.3021 117.167 15.7913C117.172 17.2583 117.044 18.7227 116.783 20.1663C116.684 20.5618 116.483 20.9242 116.199 21.2168C115.915 21.5095 115.559 21.722 115.167 21.833C113.733 22.2163 108 22.2163 108 22.2163C108 22.2163 102.267 22.2163 100.833 21.833C100.449 21.7279 100.098 21.5254 99.8151 21.2451C99.532 20.9648 99.3258 20.6162 99.2167 20.233C98.9523 18.7674 98.824 17.2805 98.8334 15.7913C98.8261 14.3133 98.9544 12.8376 99.2167 11.383C99.3157 10.9875 99.5173 10.6252 99.8012 10.3325C100.085 10.0399 100.441 9.82733 100.833 9.71634C102.267 9.33301 108 9.33301 108 9.33301C108 9.33301 113.733 9.33301 115.167 9.68301C115.559 9.794 115.915 10.0065 116.199 10.2992ZM110.917 15.7914L106.125 18.5164V13.0664L110.917 15.7914Z" fill="#F2F2F2"/>
<circle cx="16" cy="16" r="15.5" fill="#767676" stroke="#767676"/>
<g clip-path="url(#clip0_110560_2204)">
<path d="M20.1666 7.66699H11.8333C9.53211 7.66699 7.66663 9.53247 7.66663 11.8337V20.167C7.66663 22.4682 9.53211 24.3337 11.8333 24.3337H20.1666C22.4678 24.3337 24.3333 22.4682 24.3333 20.167V11.8337C24.3333 9.53247 22.4678 7.66699 20.1666 7.66699Z" stroke="#F2F2F2" stroke-width="1.5" stroke-linecap="round" stroke-linejoin="round"/>
<path d="M19.3334 15.4753C19.4362 16.1688 19.3178 16.8771 18.9948 17.4994C18.6719 18.1218 18.161 18.6264 17.5347 18.9416C16.9085 19.2569 16.1987 19.3666 15.5065 19.2552C14.8143 19.1438 14.1748 18.817 13.6791 18.3212C13.1833 17.8254 12.8565 17.186 12.7451 16.4938C12.6337 15.8015 12.7434 15.0918 13.0586 14.4656C13.3739 13.8393 13.8785 13.3284 14.5009 13.0055C15.1232 12.6825 15.8315 12.5641 16.525 12.6669C17.2325 12.7718 17.8874 13.1015 18.3931 13.6072C18.8988 14.1129 19.2285 14.7678 19.3334 15.4753Z" stroke="#F2F2F2" stroke-width="1.5" stroke-linecap="round" stroke-linejoin="round"/>
<path d="M20.5834 11.417H20.5917" stroke="#F2F2F2" stroke-width="1.5" stroke-linecap="round" stroke-linejoin="round"/>
</g>
<defs>
<clipPath id="clip0_110560_2204">
<rect width="20" height="20" fill="white" transform="translate(6 6)"/>
</clipPath>
</defs>
</svg>
