<svg width="32" height="32" viewBox="0 0 32 32" fill="none" xmlns="http://www.w3.org/2000/svg">
<path d="M12.889 28.444C13.6254 28.444 14.2223 27.8471 14.2223 27.1107C14.2223 26.3743 13.6254 25.7773 12.889 25.7773C12.1526 25.7773 11.5557 26.3743 11.5557 27.1107C11.5557 27.8471 12.1526 28.444 12.889 28.444Z" fill="black" stroke="black" stroke-width="2" stroke-linecap="round" stroke-linejoin="round"/>
<path d="M25.3333 28.444C26.0697 28.444 26.6667 27.8471 26.6667 27.1107C26.6667 26.3743 26.0697 25.7773 25.3333 25.7773C24.597 25.7773 24 26.3743 24 27.1107C24 27.8471 24.597 28.444 25.3333 28.444Z" fill="black" stroke="black" stroke-width="2" stroke-linecap="round" stroke-linejoin="round"/>
<path d="M2.66675 2.66699H7.51523L10.7637 18.5362C10.8746 19.0819 11.1782 19.572 11.6213 19.9208C12.0645 20.2697 12.6191 20.455 13.188 20.4443H24.9698C25.5386 20.455 26.0932 20.2697 26.5364 19.9208C26.9796 19.572 27.2832 19.0819 27.394 18.5362L29.3334 8.59277H8.72735" stroke="black" stroke-width="2" stroke-linecap="round" stroke-linejoin="round"/>
</svg>
